# xmcd CD database file
#
# Track frame offsets:
#	150
#	8317
#	28891
#	53958
#	80260
#	108497
#	116996
#	150318
#	178698
#	213457
#	223094
#	256189
#	289818
#
# Disc length: 4295 seconds
#
# Revision: 1
# Processed by: cddbd v1.4PL0 Copyright (c) Steve Scherf et al.
# Submitted via: CDex 1.50beta8
#
DISCID=b110c50d
DTITLE=Cosmicbaby - Heaven
DYEAR=1998
DGENRE=New Age
TTITLE0=air
TTITLE1=der flug
TTITLE2=casa del mar
TTITLE3=würzburg
TTITLE4=good times
TTITLE5=to another plane
TTITLE6=suite russe
TTITLE7=sketches in spring
TTITLE8=lunaris
TTITLE9=joy
TTITLE10=vapeur et piano
TTITLE11=karma 2
TTITLE12=lucifer
EXTD=YEAR: 1998
EXTT0=
EXTT1=
EXTT2=
EXTT3=
EXTT4=
EXTT5=
EXTT6=
EXTT7=
EXTT8=
EXTT9=
EXTT10=
EXTT11=
EXTT12=
PLAYORDER=
